# xmcd
#
# Track frame offsets:
#	150
#	17950
#	34652
#	52050
#	64502
#	79572
#	91122
#	110405
#	124875
#	138897
#	150650
#	160195
#	174410
#	194735
#
# Disc length: 2739 seconds
#
# Revision: 1
# Processed by: cddbd v1.5.2PL0 Copyright (c) Steve Scherf et al.
# Submitted via: audiograbber 1.82.01
#
DISCID=b20ab10e
DTITLE=Richard Dobson - Blue Collar Blues
DYEAR=1992
DGENRE=Country
TTITLE0=Blue Collar Blues
TTITLE1=Pony Ride
TTITLE2=I Give Myself Away
TTITLE3=Mexican Honeymoon
TTITLE4=Whole Lotta Love
TTITLE5=Hears Are Like Horses
TTITLE6=Foley
TTITLE7=Border Town
TTITLE8=Moving On
TTITLE9=A Rose Is A Rose
TTITLE10=Hole In My Heart
TTITLE11=Never Say Never
TTITLE12=A Vibe
TTITLE13=Uncertain Texas
EXTD=
EXTT0=
EXTT1=
EXTT2=
EXTT3=
EXTT4=
EXTT5=
EXTT6=
EXTT7=
EXTT8=
EXTT9=
EXTT10=
EXTT11=
EXTT12=
EXTT13=
PLAYORDER=
